<svg width="1537" height="1471" xmlns="http://www.w3.org/2000/svg" xmlns:xlink="http://www.w3.org/1999/xlink" overflow="hidden"><defs><filter id="fx0" x="-10%" y="-10%" width="120%" height="120%" filterUnits="userSpaceOnUse" primitiveUnits="userSpaceOnUse"><feComponentTransfer color-interpolation-filters="sRGB"><feFuncR type="discrete" tableValues="0.643137 0.643137"/><feFuncG type="discrete" tableValues="0.423529 0.423529"/><feFuncB type="discrete" tableValues="0.227451 0.227451"/><feFuncA type="linear" slope="1" intercept="0"/></feComponentTransfer><feGaussianBlur stdDeviation="6.29775 6.29775"/></filter><clipPath id="clip1"><rect x="617" y="1420" width="1537" height="1471"/></clipPath><clipPath id="clip2"><rect x="414" y="312" width="672" height="672"/></clipPath><clipPath id="clip3"><rect x="0" y="0" width="1507" height="1440"/></clipPath></defs><g clip-path="url(#clip1)" transform="translate(-617 -1420)"><g clip-path="url(#clip2)" filter="url(#fx0)" transform="translate(646 1450)"><g clip-path="url(#clip3)"><path d="M393.426-511.323C409.493-516.1 426.428-513.929 444.232-504.81 456.826-499.599 466.813-490.914 474.195-478.755 477.235-473.11 485.051-471.156 497.645-472.893 534.121-478.103 566.255-474.63 594.047-462.471 629.655-443.798 641.162-419.915 628.569-390.82 623.793-378.227 612.937-371.714 596.001-371.279 584.711-371.279 584.711-364.331 596.001-350.436 619.016-319.17 631.609-287.036 633.78-254.033 631.609-232.321 619.233-217.557 596.652-209.74 587.967-208.438 588.619-201.055 598.606-187.594 609.897-159.368 612.719-120.72 607.074-71.6504 600.126-29.5286 577.546-10.8561 539.332-15.6328 517.62-25.6204 497.862-29.5286 480.058-27.3574L323.729 1.9541C299.846 8.46777 282.91 17.5869 272.923 29.3115 265.541 39.2992 267.061 46.6813 277.482 51.458 289.641 53.195 308.097 47.984 332.849 35.8252 407.104 10.2048 476.149-1.51986 539.983 0.651367 559.09 2.82259 576.46 6.73079 592.093 12.376 620.319 24.1006 635.517 39.5163 637.688 58.623 635.083 92.9284 613.588 104.87 573.203 94.4482 542.372 84.0264 500.25 82.2894 446.838 89.2373 400.808 97.4879 366.068 102.482 342.619 104.219 311.354 105.087 285.299 99.2249 264.455 86.6318 235.361 66.6566 229.933 44.9443 248.171 21.4951 254.685 14.9814 250.776 13.8958 236.446 18.2383 229.498 23.4492 215.82 23.4492 195.41 18.2383 172.829 17.804 145.038 21.9294 112.035 30.6143 78.1641 31.917 54.7148 10.8561 41.6875-32.5684 27.3574-91.6256 26.0547-173.264 37.7793-277.482 42.1217-312.222 43.2074-339.797 41.0361-360.206 40.1676-365.417 38.4307-369.759 35.8252-373.233 23.6663-378.879 17.5869-386.912 17.5869-397.334 16.7184-403.413 21.0609-407.756 30.6143-410.361 49.2868-413.401 66.4395-403.413 82.0723-380.398 89.0202-370.411 98.7907-371.931 111.384-384.958 153.071-415.789 192.37-411.013 229.281-370.628 242.743-357.166 246.434-356.732 240.354-369.325 234.709-378.01 233.624-387.563 237.098-397.985 241.874-407.973 248.605-411.664 257.29-409.059 273.791-408.624 291.161-413.184 309.399-422.737 330.243-430.988 351.087-438.37 371.931-444.884 372.799-446.621 370.845-450.312 366.068-455.957 351.738-477.235 360.857-495.69 393.426-511.323ZM388.215-343.271C388.215-354.127 382.135-358.686 369.977-356.949 357.383-353.475 352.607-345.442 355.646-332.849L356.298-320.473C354.127-308.748 357.383-302.886 366.068-302.886 382.135-299.846 389.518-307.88 388.215-326.986ZM530.213-291.812C521.962-324.815 511.975-347.396 500.25-359.555 498.079-359.555 496.125-358.252 494.388-355.646 493.085-337.408 493.519-303.32 495.69-253.382 495.256-242.526 501.77-236.881 515.231-236.446 522.614-235.578 529.996-233.841 537.378-231.235 549.103-227.761 550.839-233.189 542.589-247.52 537.378-259.678 533.253-274.443 530.213-291.812ZM272.271-348.481C270.534-348.481 268.146-349.35 265.106-351.087 254.685-354.561 248.605-355.429 246.868-353.692 254.685-332.414 259.244-312.656 260.547-294.418 261.415-283.996 266.192-284.865 274.877-297.023 286.167-313.525 291.595-325.466 291.161-332.849 291.595-339.797 285.299-345.007 272.271-348.481ZM171.31-318.519C161.322-328.506 153.071-325.249 146.558-308.748 141.347-295.721 132.01-283.562 118.549-272.271 107.258-265.758 101.396-256.204 100.962-243.611 97.0537-180.646 97.7051-124.411 102.916-74.9072 107.258-57.1032 117.68-54.0635 134.182-65.7881 145.906-69.262 152.203-75.7757 153.071-85.3291 159.151-153.071 165.882-221.031 173.264-289.207 175.869-300.063 175.218-309.834 171.31-318.519ZM369.977-244.914C355.212-259.678 346.527-261.415 343.922-250.125L338.711-224.722C336.974-214.3 342.619-210.826 355.646-214.3 362.16-216.905 369.325-218.859 377.142-220.162 397.117-220.596 394.729-228.847 369.977-244.914ZM266.409-205.832C259.461-218.425 255.119-220.379 253.382-211.694 246.868-170.007 241.223-128.319 236.446-86.6318 235.144-74.9072 237.749-66.4395 244.263-61.2285 263.369-42.556 267.712-22.1465 257.29 0 257.29 2.17122 258.159 3.69108 259.896 4.55957 262.067 4.55957 269.883 0.868489 283.345-6.51367 287.253-7.81641 291.378-9.77051 295.721-12.376 307.88-15.8499 309.182-20.1924 299.629-25.4033 277.917-42.3389 271.186-63.3997 279.437-88.5859 283.345-108.127 284.865-130.273 283.996-155.025 283.128-159.368 281.173-163.71 278.134-168.053 275.094-171.961 274.877-177.606 277.482-184.988 279.219-187.594 275.528-194.542 266.409-205.832ZM488.525-183.034C462.905-187.377 421-176.086 362.812-149.163 352.39-144.386 347.83-137.004 349.133-127.017 349.567-116.595 356.949-115.292 371.279-123.108 417.743-142.649 455.74-153.288 485.269-155.025 495.256-152.42 500.25-154.808 500.25-162.19 499.816-173.481 495.908-180.429 488.525-183.034ZM483.314-112.035C464.208-108.995 444.884-104.436 425.343-98.3564 401.459-89.6715 380.398-85.112 362.16-84.6777 351.304-85.9805 345.876-80.5524 345.876-68.3936 343.705-45.8128 353.692-40.3848 375.839-52.1094 418.829-70.7819 455.957-81.4209 487.223-84.0264 498.079-84.0264 503.507-88.8031 503.507-98.3564 503.507-108.344 496.776-112.904 483.314-112.035Z" fill="#E8DFCA" transform="translate(420.302 854)"/></g></g><text fill="#E8DFCA" font-family="HanWangKanTan,HanWangKanTan_MSFontService,sans-serif" font-weight="400" font-size="667" transform="translate(1017.6 2255)">喳</text></g></svg>